<svg xmlns="http://www.w3.org/2000/svg" viewBox="0 0 16 17" width="128" height="136">
  <title>large digits 8 (1f17f32429158675), stored upside down as the game draws it flipped</title>
  <defs>
    <linearGradient id="body" gradientUnits="userSpaceOnUse" x1="0" y1="16" x2="0" y2="2">
      <stop offset="0" stop-color="rgb(245,240,83)"/>
      <stop offset="0.5" stop-color="rgb(241,234,20)"/>
      <stop offset="1" stop-color="rgb(236,214,35)"/>
    </linearGradient>
  </defs>
  <path fill="rgb(0,0,0)" fill-rule="nonzero" d="M7.885,1.500 Q5.975,1.500 4.610,1.982 Q3.245,2.465 2.564,3.343 Q1.883,4.222 2.022,5.396 Q2.133,6.334 2.703,7.030 Q3.274,7.726 4.234,8.163 Q5.195,8.600 6.465,8.746 L6.464,8.737 Q4.815,8.946 3.958,9.729 Q3.101,10.512 3.252,11.786 Q3.384,12.897 4.217,13.734 Q5.051,14.572 6.425,15.036 Q7.800,15.500 9.545,15.500 Q11.342,15.500 12.602,15.045 Q13.863,14.590 14.488,13.757 Q15.113,12.924 14.978,11.786 Q14.827,10.512 13.790,9.733 Q12.753,8.955 11.043,8.737 L11.044,8.746 Q12.280,8.600 13.137,8.163 Q13.994,7.726 14.399,7.030 Q14.804,6.334 14.693,5.396 Q14.554,4.222 13.659,3.343 Q12.764,2.465 11.285,1.982 Q9.805,1.500 7.885,1.500 Z M8.185,4.031 Q8.771,4.031 9.258,4.244 Q9.745,4.458 10.052,4.836 Q10.359,5.214 10.415,5.687 Q10.472,6.170 10.254,6.538 Q10.036,6.907 9.604,7.116 Q9.172,7.326 8.576,7.326 Q7.991,7.326 7.514,7.116 Q7.037,6.907 6.732,6.538 Q6.426,6.170 6.369,5.687 Q6.312,5.205 6.530,4.832 Q6.747,4.458 7.174,4.244 Q7.600,4.031 8.185,4.031 Z M8.890,9.975 Q9.444,9.975 9.871,10.152 Q10.298,10.330 10.557,10.657 Q10.817,10.985 10.869,11.422 Q10.922,11.868 10.739,12.191 Q10.557,12.514 10.172,12.692 Q9.788,12.869 9.233,12.869 Q8.689,12.869 8.267,12.692 Q7.846,12.514 7.587,12.191 Q7.328,11.868 7.275,11.422 Q7.223,10.985 7.405,10.657 Q7.587,10.330 7.966,10.152 Q8.346,9.975 8.890,9.975 Z"/>
  <path fill="url(#body)" fill-rule="nonzero" d="M6.885,2.000 Q4.975,2.000 3.610,2.482 Q2.245,2.965 1.564,3.843 Q0.883,4.722 1.022,5.896 Q1.133,6.834 1.703,7.530 Q2.274,8.226 3.234,8.663 Q4.195,9.100 5.465,9.246 L5.464,9.237 Q3.815,9.446 2.958,10.229 Q2.101,11.012 2.252,12.286 Q2.384,13.397 3.217,14.234 Q4.051,15.072 5.425,15.536 Q6.800,16.000 8.545,16.000 Q10.342,16.000 11.602,15.545 Q12.863,15.090 13.488,14.257 Q14.113,13.424 13.978,12.286 Q13.827,11.012 12.790,10.233 Q11.753,9.455 10.043,9.237 L10.044,9.246 Q11.280,9.100 12.137,8.663 Q12.994,8.226 13.399,7.530 Q13.804,6.834 13.693,5.896 Q13.554,4.722 12.659,3.843 Q11.764,2.965 10.285,2.482 Q8.805,2.000 6.885,2.000 Z M7.185,4.531 Q7.771,4.531 8.258,4.744 Q8.745,4.958 9.052,5.336 Q9.359,5.714 9.415,6.187 Q9.472,6.670 9.254,7.038 Q9.036,7.407 8.604,7.616 Q8.172,7.826 7.576,7.826 Q6.991,7.826 6.514,7.616 Q6.037,7.407 5.732,7.038 Q5.426,6.670 5.369,6.187 Q5.312,5.705 5.530,5.332 Q5.747,4.958 6.174,4.744 Q6.600,4.531 7.185,4.531 Z M7.890,10.475 Q8.444,10.475 8.871,10.652 Q9.298,10.830 9.557,11.157 Q9.817,11.485 9.869,11.922 Q9.922,12.368 9.739,12.691 Q9.557,13.014 9.172,13.192 Q8.788,13.369 8.233,13.369 Q7.689,13.369 7.267,13.192 Q6.846,13.014 6.587,12.691 Q6.328,12.368 6.275,11.922 Q6.223,11.485 6.405,11.157 Q6.587,10.830 6.966,10.652 Q7.346,10.475 7.890,10.475 Z"/>
</svg>
