<svg xmlns="http://www.w3.org/2000/svg" viewBox="0 0 32 13" width="256" height="104">
  <title>digit silhouettes 0 (c964c6a03048ff4b), the alpha tile of small digits 0</title>
  <path fill="rgb(255,255,255)" fill-rule="nonzero" d="M16.663,1.500 Q13.258,1.500 10.980,2.105 Q8.703,2.709 7.704,3.828 Q6.704,4.946 7.119,6.497 Q7.533,8.047 9.131,9.168 Q10.728,10.288 13.327,10.894 Q15.926,11.500 19.335,11.500 Q22.761,11.500 25.030,10.895 Q27.300,10.291 28.298,9.169 Q29.296,8.047 28.881,6.493 Q28.467,4.944 26.869,3.824 Q25.271,2.703 22.679,2.101 Q20.088,1.500 16.663,1.500 Z M17.223,3.581 Q18.593,3.581 19.671,3.932 Q20.749,4.283 21.453,4.936 Q22.157,5.590 22.398,6.494 Q22.642,7.404 22.287,8.057 Q21.933,8.711 21.040,9.065 Q20.148,9.419 18.787,9.419 Q17.426,9.419 16.339,9.065 Q15.252,8.711 14.548,8.057 Q13.844,7.404 13.601,6.494 Q13.359,5.590 13.713,4.936 Q14.068,4.283 14.968,3.932 Q15.868,3.581 17.223,3.581 Z"/>
  <path fill="rgb(255,255,255)" fill-rule="nonzero" d="M13.663,2.000 Q10.258,2.000 7.980,2.605 Q5.703,3.209 4.704,4.328 Q3.704,5.446 4.119,6.997 Q4.533,8.547 6.131,9.668 Q7.728,10.788 10.327,11.394 Q12.926,12.000 16.335,12.000 Q19.761,12.000 22.030,11.395 Q24.300,10.791 25.298,9.669 Q26.296,8.547 25.881,6.993 Q25.467,5.444 23.869,4.324 Q22.271,3.203 19.679,2.601 Q17.088,2.000 13.663,2.000 Z M14.223,4.081 Q15.593,4.081 16.671,4.432 Q17.749,4.783 18.453,5.436 Q19.157,6.090 19.398,6.994 Q19.642,7.904 19.287,8.557 Q18.933,9.211 18.040,9.565 Q17.148,9.919 15.787,9.919 Q14.426,9.919 13.339,9.565 Q12.252,9.211 11.548,8.557 Q10.844,7.904 10.601,6.994 Q10.359,6.090 10.713,5.436 Q11.068,4.783 11.968,4.432 Q12.868,4.081 14.223,4.081 Z"/>
</svg>
