<svg xmlns="http://www.w3.org/2000/svg" viewBox="0 0 128 19" width="1024" height="152">
  <title>Large digits: 0-9 (2169aff1a4201b62)</title>
  <defs>
    <clipPath id="c0"><rect x="118" y="0" width="10" height="19"/></clipPath>
    <clipPath id="c1"><rect x="0" y="0" width="11" height="18"/></clipPath>
    <clipPath id="c2"><rect x="0" y="0" width="11" height="18"/></clipPath>
    <clipPath id="c3"><rect x="12" y="0" width="8" height="18"/></clipPath>
    <clipPath id="c4"><rect x="12" y="0" width="8" height="18"/></clipPath>
    <clipPath id="c5"><rect x="21" y="0" width="11" height="18"/></clipPath>
    <clipPath id="c6"><rect x="21" y="0" width="11" height="18"/></clipPath>
    <clipPath id="c7"><rect x="33" y="0" width="11" height="18"/></clipPath>
    <clipPath id="c8"><rect x="33" y="0" width="11" height="18"/></clipPath>
    <clipPath id="c9"><rect x="45" y="0" width="12" height="18"/></clipPath>
    <clipPath id="c10"><rect x="45" y="0" width="12" height="18"/></clipPath>
    <clipPath id="c11"><rect x="58" y="0" width="11" height="18"/></clipPath>
    <clipPath id="c12"><rect x="58" y="0" width="11" height="18"/></clipPath>
    <clipPath id="c13"><rect x="70" y="0" width="11" height="18"/></clipPath>
    <clipPath id="c14"><rect x="70" y="0" width="11" height="18"/></clipPath>
    <clipPath id="c15"><rect x="82" y="0" width="11" height="18"/></clipPath>
    <clipPath id="c16"><rect x="82" y="0" width="11" height="18"/></clipPath>
    <clipPath id="c17"><rect x="94" y="0" width="11" height="18"/></clipPath>
    <clipPath id="c18"><rect x="94" y="0" width="11" height="18"/></clipPath>
    <clipPath id="c19"><rect x="106" y="0" width="11" height="18"/></clipPath>
    <clipPath id="c20"><rect x="106" y="0" width="11" height="18"/></clipPath>
  </defs>
  <rect width="128" height="19" fill="#000"/>
  <path fill="rgb(255,255,255)" fill-rule="evenodd" stroke="rgb(150,150,150)" stroke-width="1.5" stroke-linejoin="round" paint-order="stroke" clip-path="url(#c0)" d="M120.194,1.151 Q119.594,1.156 119.344,1.469 L119.344,1.469 Q119.094,1.781 119.096,2.381 L119.154,16.806 Q119.156,17.406 119.469,17.656 L119.469,17.656 Q119.781,17.906 120.381,17.901 L125.806,17.849 Q126.406,17.844 126.656,17.531 L126.656,17.531 Q126.906,17.219 126.904,16.619 L126.846,2.194 Q126.844,1.594 126.531,1.344 L126.531,1.344 Q126.219,1.094 125.619,1.099 Z M120.094,2.219 Q120.344,1.906 120.944,1.899 L124.869,1.851 Q125.469,1.844 125.781,2.094 L125.781,2.094 Q126.094,2.344 126.096,2.944 L126.154,15.869 Q126.156,16.469 125.906,16.781 L125.906,16.781 Q125.656,17.094 125.056,17.101 L121.131,17.149 Q120.531,17.156 120.219,16.906 L120.219,16.906 Q119.906,16.656 119.904,16.056 L119.846,3.131 Q119.844,2.531 120.094,2.219 Z"/>
  <path fill="rgb(0,0,0)" fill-rule="nonzero" clip-path="url(#c1)" d="M0,0 L11,0 L11,18 L0,18 Z"/>
  <path fill="rgb(255,255,255)" fill-rule="nonzero" stroke="rgb(150,150,150)" stroke-width="1.5" stroke-linejoin="round" paint-order="stroke" clip-path="url(#c2)" d="M5.500,17.250 Q4.035,17.250 2.971,16.240 Q1.907,15.230 1.329,13.384 Q0.750,11.539 0.750,9.010 Q0.750,6.472 1.328,4.621 Q1.907,2.771 2.971,1.761 Q4.035,0.750 5.500,0.750 Q6.967,0.750 8.033,1.760 Q9.099,2.770 9.675,4.621 Q10.250,6.472 10.250,9.011 Q10.250,11.540 9.675,13.386 Q9.099,15.232 8.033,16.241 Q6.967,17.250 5.500,17.250 Z M5.500,15.147 Q6.400,15.147 7.050,14.406 Q7.700,13.664 8.050,12.291 Q8.401,10.918 8.401,9.010 Q8.401,7.093 8.050,5.716 Q7.700,4.338 7.049,3.595 Q6.399,2.853 5.501,2.853 Q4.602,2.853 3.951,3.595 Q3.300,4.338 2.950,5.716 Q2.599,7.093 2.599,9.010 Q2.599,10.918 2.950,12.291 Q3.300,13.664 3.951,14.406 Q4.603,15.147 5.500,15.147 Z"/>
  <path fill="rgb(0,0,0)" fill-rule="nonzero" clip-path="url(#c3)" d="M12,0 L20,0 L20,18 L12,18 Z"/>
  <path fill="rgb(255,255,255)" fill-rule="nonzero" stroke="rgb(150,150,150)" stroke-width="1.5" stroke-linejoin="round" paint-order="stroke" clip-path="url(#c4)" d="M19.250,0.750 L19.250,17.250 L16.766,17.250 L16.766,3.256 L16.752,3.256 L12.750,5.873 L12.750,3.437 L16.845,0.750 Z"/>
  <path fill="rgb(0,0,0)" fill-rule="nonzero" clip-path="url(#c5)" d="M21,0 L32,0 L32,18 L21,18 Z"/>
  <path fill="rgb(255,255,255)" fill-rule="nonzero" stroke="rgb(150,150,150)" stroke-width="1.5" stroke-linejoin="round" paint-order="stroke" clip-path="url(#c6)" d="M21.750,17.250 L21.750,15.264 L26.768,10.067 Q27.545,9.249 28.071,8.597 Q28.596,7.945 28.865,7.292 Q29.133,6.638 29.133,5.839 Q29.133,4.932 28.816,4.268 Q28.500,3.604 27.920,3.245 Q27.340,2.886 26.534,2.886 Q25.668,2.886 25.053,3.314 Q24.439,3.741 24.110,4.528 Q23.781,5.315 23.781,6.402 L21.762,6.402 Q21.762,4.717 22.350,3.445 Q22.937,2.173 24.010,1.462 Q25.083,0.750 26.528,0.750 Q27.890,0.750 28.937,1.375 Q29.983,2.001 30.580,3.119 Q31.176,4.238 31.176,5.724 Q31.176,6.807 30.833,7.734 Q30.490,8.661 29.813,9.567 Q29.137,10.472 28.131,11.515 L24.704,15.087 L24.704,15.109 L31.250,15.109 L31.250,17.250 Z"/>
  <path fill="rgb(0,0,0)" fill-rule="nonzero" clip-path="url(#c7)" d="M33,0 L44,0 L44,18 L33,18 Z"/>
  <path fill="rgb(255,255,255)" fill-rule="nonzero" stroke="rgb(150,150,150)" stroke-width="1.5" stroke-linejoin="round" paint-order="stroke" clip-path="url(#c8)" d="M38.519,17.250 Q37.047,17.250 35.979,16.547 Q34.911,15.844 34.331,14.625 Q33.750,13.407 33.750,11.866 L35.763,11.866 Q35.763,12.908 36.087,13.654 Q36.410,14.401 37.022,14.794 Q37.635,15.188 38.488,15.188 Q39.303,15.188 39.921,14.846 Q40.540,14.505 40.887,13.878 Q41.234,13.251 41.234,12.412 Q41.234,11.626 40.862,11.046 Q40.489,10.466 39.825,10.142 Q39.162,9.819 38.273,9.819 L37.170,9.819 L37.170,7.812 L38.273,7.812 Q39.060,7.812 39.649,7.518 Q40.237,7.224 40.564,6.688 Q40.891,6.151 40.891,5.429 Q40.891,4.614 40.585,4.022 Q40.279,3.430 39.732,3.109 Q39.185,2.788 38.445,2.788 Q37.689,2.788 37.135,3.143 Q36.582,3.497 36.280,4.154 Q35.978,4.810 35.978,5.721 L34.024,5.721 Q34.024,4.268 34.580,3.145 Q35.136,2.021 36.133,1.386 Q37.130,0.750 38.452,0.750 Q39.713,0.750 40.708,1.327 Q41.703,1.904 42.274,2.910 Q42.845,3.916 42.845,5.225 Q42.845,6.493 42.188,7.422 Q41.531,8.351 40.428,8.703 L40.428,8.735 Q41.297,8.895 41.929,9.428 Q42.562,9.960 42.906,10.750 Q43.250,11.540 43.250,12.487 Q43.250,13.874 42.637,14.952 Q42.024,16.030 40.958,16.640 Q39.891,17.250 38.519,17.250 Z"/>
  <path fill="rgb(0,0,0)" fill-rule="nonzero" clip-path="url(#c9)" d="M45,0 L57,0 L57,18 L45,18 Z"/>
  <path fill="rgb(255,255,255)" fill-rule="nonzero" stroke="rgb(150,150,150)" stroke-width="1.5" stroke-linejoin="round" paint-order="stroke" clip-path="url(#c10)" d="M45.750,13.674 L45.750,11.745 L51.838,1.750 L53.113,1.750 L53.113,4.249 L52.392,4.249 L47.892,11.646 L47.892,11.667 L56.250,11.667 L56.250,13.674 Z M52.407,17.250 L52.407,13.094 L52.407,12.207 L52.407,1.750 L54.359,1.750 L54.359,17.250 Z"/>
  <path fill="rgb(0,0,0)" fill-rule="nonzero" clip-path="url(#c11)" d="M58,0 L69,0 L69,18 L58,18 Z"/>
  <path fill="rgb(255,255,255)" fill-rule="nonzero" stroke="rgb(150,150,150)" stroke-width="1.5" stroke-linejoin="round" paint-order="stroke" clip-path="url(#c12)" d="M63.546,17.250 Q62.195,17.250 61.134,16.637 Q60.072,16.025 59.442,14.953 Q58.812,13.881 58.750,12.493 L60.793,12.493 Q60.849,13.292 61.217,13.920 Q61.585,14.547 62.189,14.909 Q62.793,15.272 63.553,15.272 Q64.356,15.272 64.957,14.850 Q65.558,14.429 65.898,13.692 Q66.238,12.955 66.238,12.002 Q66.238,11.046 65.911,10.310 Q65.584,9.573 65.001,9.153 Q64.417,8.734 63.644,8.734 Q62.626,8.734 61.900,9.206 Q61.175,9.678 60.896,10.562 L58.928,10.562 L59.363,1.750 L67.489,1.750 L67.489,3.770 L61.245,3.770 L60.954,8.166 L60.972,8.166 Q61.563,7.458 62.311,7.114 Q63.058,6.769 63.960,6.769 Q64.883,6.769 65.666,7.152 Q66.450,7.535 67.029,8.235 Q67.608,8.935 67.929,9.883 Q68.250,10.831 68.250,11.958 Q68.250,13.511 67.662,14.704 Q67.074,15.898 66.016,16.574 Q64.958,17.250 63.546,17.250 Z"/>
  <path fill="rgb(0,0,0)" fill-rule="nonzero" clip-path="url(#c13)" d="M70,0 L81,0 L81,18 L70,18 Z"/>
  <path fill="rgb(255,255,255)" fill-rule="nonzero" stroke="rgb(150,150,150)" stroke-width="1.5" stroke-linejoin="round" paint-order="stroke" clip-path="url(#c14)" d="M75.619,17.250 Q74.457,17.250 73.555,16.737 Q72.653,16.225 72.027,15.238 Q71.400,14.251 71.075,12.826 Q70.750,11.400 70.750,9.565 Q70.750,7.565 71.059,5.943 Q71.368,4.321 71.995,3.157 Q72.622,1.994 73.570,1.372 Q74.518,0.750 75.789,0.750 Q77.016,0.750 77.946,1.310 Q78.875,1.870 79.441,2.860 Q80.006,3.850 80.127,5.148 L78.147,5.148 Q77.976,4.079 77.380,3.446 Q76.785,2.814 75.835,2.814 Q74.770,2.814 74.074,3.538 Q73.377,4.262 73.036,5.539 Q72.694,6.816 72.694,8.485 L72.712,8.485 Q73.025,7.867 73.522,7.427 Q74.019,6.987 74.644,6.750 Q75.270,6.514 75.970,6.514 Q77.207,6.514 78.172,7.207 Q79.138,7.900 79.694,9.100 Q80.250,10.300 80.250,11.833 Q80.250,13.432 79.659,14.655 Q79.067,15.878 78.025,16.564 Q76.982,17.250 75.619,17.250 Z M75.611,15.167 Q76.354,15.167 76.955,14.723 Q77.555,14.280 77.910,13.521 Q78.264,12.762 78.264,11.833 Q78.264,10.904 77.920,10.162 Q77.576,9.419 76.986,8.984 Q76.396,8.549 75.652,8.549 Q75.093,8.549 74.607,8.802 Q74.122,9.056 73.756,9.506 Q73.390,9.956 73.183,10.556 Q72.976,11.156 72.976,11.849 Q72.976,12.770 73.329,13.525 Q73.683,14.280 74.281,14.723 Q74.879,15.167 75.611,15.167 Z"/>
  <path fill="rgb(0,0,0)" fill-rule="nonzero" clip-path="url(#c15)" d="M82,0 L93,0 L93,18 L82,18 Z"/>
  <path fill="rgb(255,255,255)" fill-rule="nonzero" stroke="rgb(150,150,150)" stroke-width="1.5" stroke-linejoin="round" paint-order="stroke" clip-path="url(#c16)" d="M83.736,17.250 L89.997,3.844 L89.997,3.831 L82.750,3.831 L82.750,1.750 L92.250,1.750 L92.250,3.879 L86.041,17.250 Z"/>
  <path fill="rgb(0,0,0)" fill-rule="nonzero" clip-path="url(#c17)" d="M94,0 L105,0 L105,18 L94,18 Z"/>
  <path fill="rgb(255,255,255)" fill-rule="nonzero" stroke="rgb(150,150,150)" stroke-width="1.5" stroke-linejoin="round" paint-order="stroke" clip-path="url(#c18)" d="M99.498,17.250 Q98.098,17.250 97.028,16.673 Q95.959,16.096 95.355,15.073 Q94.750,14.051 94.750,12.725 Q94.750,11.645 95.140,10.774 Q95.531,9.904 96.211,9.343 Q96.892,8.782 97.762,8.652 L97.762,8.663 Q96.629,8.433 95.923,7.464 Q95.217,6.496 95.217,5.061 Q95.217,3.810 95.770,2.835 Q96.323,1.861 97.289,1.305 Q98.255,0.750 99.498,0.750 Q100.745,0.750 101.709,1.303 Q102.674,1.856 103.222,2.829 Q103.769,3.803 103.769,5.061 Q103.769,6.488 103.064,7.459 Q102.359,8.430 101.238,8.663 L101.238,8.652 Q102.108,8.782 102.789,9.347 Q103.469,9.912 103.860,10.782 Q104.250,11.653 104.250,12.725 Q104.250,14.051 103.644,15.073 Q103.039,16.096 101.970,16.673 Q100.900,17.250 99.498,17.250 Z M99.498,15.249 Q100.306,15.249 100.906,14.918 Q101.506,14.586 101.838,13.983 Q102.171,13.380 102.171,12.581 Q102.171,11.755 101.828,11.117 Q101.486,10.478 100.883,10.115 Q100.280,9.752 99.498,9.752 Q98.718,9.752 98.113,10.115 Q97.508,10.478 97.162,11.117 Q96.816,11.755 96.816,12.581 Q96.816,13.382 97.151,13.984 Q97.487,14.586 98.088,14.918 Q98.690,15.249 99.498,15.249 Z M99.498,7.769 Q100.175,7.769 100.685,7.456 Q101.194,7.143 101.480,6.574 Q101.766,6.005 101.766,5.257 Q101.766,4.507 101.483,3.947 Q101.201,3.388 100.691,3.074 Q100.182,2.761 99.498,2.761 Q98.816,2.761 98.304,3.074 Q97.792,3.388 97.506,3.947 Q97.220,4.507 97.220,5.257 Q97.220,6.005 97.506,6.570 Q97.792,7.135 98.308,7.452 Q98.823,7.769 99.498,7.769 Z"/>
  <path fill="rgb(0,0,0)" fill-rule="nonzero" clip-path="url(#c19)" d="M106,0 L117,0 L117,18 L106,18 Z"/>
  <path fill="rgb(255,255,255)" fill-rule="nonzero" stroke="rgb(150,150,150)" stroke-width="1.5" stroke-linejoin="round" paint-order="stroke" clip-path="url(#c20)" d="M111.184,17.250 Q109.965,17.250 109.024,16.690 Q108.084,16.130 107.512,15.135 Q106.940,14.140 106.818,12.852 L108.798,12.852 Q108.969,13.919 109.575,14.552 Q110.181,15.186 111.131,15.186 Q112.197,15.186 112.893,14.462 Q113.588,13.738 113.933,12.456 Q114.278,11.173 114.278,9.515 L114.260,9.515 Q113.947,10.125 113.457,10.552 Q112.967,10.980 112.350,11.200 Q111.732,11.420 111.030,11.420 Q109.800,11.420 108.831,10.735 Q107.862,10.050 107.306,8.853 Q106.750,7.656 106.750,6.134 Q106.750,4.535 107.341,3.320 Q107.933,2.106 108.979,1.428 Q110.025,0.750 111.381,0.750 Q112.543,0.750 113.445,1.263 Q114.347,1.775 114.973,2.762 Q115.600,3.749 115.925,5.174 Q116.250,6.600 116.250,8.435 Q116.250,10.435 115.934,12.057 Q115.618,13.679 114.988,14.843 Q114.357,16.006 113.406,16.628 Q112.454,17.250 111.184,17.250 Z M111.348,9.385 Q111.907,9.385 112.393,9.135 Q112.878,8.886 113.244,8.440 Q113.610,7.994 113.817,7.402 Q114.024,6.810 114.024,6.117 Q114.024,5.189 113.671,4.446 Q113.317,3.704 112.720,3.269 Q112.123,2.833 111.389,2.833 Q110.648,2.833 110.046,3.269 Q109.445,3.704 109.090,4.450 Q108.736,5.197 108.736,6.134 Q108.736,7.063 109.080,7.797 Q109.424,8.531 110.019,8.958 Q110.613,9.385 111.348,9.385 Z"/>
</svg>
